<svg width="40" height="36" viewBox="0 0 40 36" fill="none" xmlns="http://www.w3.org/2000/svg">
<path d="M9.65625 28.5703C10.6641 27.8359 11.9687 27.6484 13.1406 28.0703C15.2109 28.8203 17.5312 29.25 20 29.25C29.7422 29.25 36.25 22.9609 36.25 16.75C36.25 10.5391 29.7422 4.25 20 4.25C10.2578 4.25 3.75 10.5391 3.75 16.75C3.75 19.25 4.71875 21.6563 6.53906 23.7188C7.21093 24.4766 7.53906 25.4766 7.46093 26.4922C7.35156 27.9063 7.01562 29.2031 6.57812 30.3516C7.90625 29.7344 9.00781 29.0469 9.65625 28.5781V28.5703ZM1.65625 31.7422C1.79687 31.5312 1.92968 31.3203 2.05468 31.1094C2.83593 29.8125 3.57812 28.1094 3.72656 26.1953C1.38281 23.5312 -2.53133e-06 20.2734 -2.53133e-06 16.75C-2.53133e-06 7.77344 8.95312 0.5 20 0.5C31.0469 0.5 40 7.77344 40 16.75C40 25.7266 31.0469 33 20 33C17.1016 33 14.3516 32.5 11.8672 31.6016C10.9375 32.2812 9.42187 33.2109 7.625 33.9922C6.44531 34.5078 5.10156 34.9766 3.71093 35.25C3.64843 35.2656 3.58593 35.2734 3.52343 35.2891C3.17968 35.3516 2.84375 35.4062 2.49219 35.4375C2.47656 35.4375 2.45312 35.4453 2.4375 35.4453C2.03906 35.4844 1.64062 35.5078 1.24218 35.5078C0.734372 35.5078 0.281247 35.2031 0.085935 34.7344C-0.109378 34.2656 -2.5481e-06 33.7344 0.35156 33.375C0.671872 33.0469 0.960935 32.6953 1.23437 32.3203C1.36718 32.1406 1.49219 31.9609 1.60937 31.7812L1.63281 31.7422H1.65625Z" fill="#AEAEAE"/>
</svg>
