<svg width="12" height="14" viewBox="0 0 12 14" fill="none" xmlns="http://www.w3.org/2000/svg">
<path d="M9.5 12.6875C9.74063 12.6875 9.9375 12.4906 9.9375 12.25V4.375H7.75C7.26602 4.375 6.875 3.98398 6.875 3.5V1.3125H2.5C2.25937 1.3125 2.0625 1.50937 2.0625 1.75V12.25C2.0625 12.4906 2.25937 12.6875 2.5 12.6875H9.5ZM0.75 1.75C0.75 0.784766 1.53477 0 2.5 0H7.02539C7.49023 0 7.93594 0.183203 8.26406 0.511328L10.7387 2.98594C11.0668 3.31406 11.25 3.75977 11.25 4.22461V12.25C11.25 13.2152 10.4652 14 9.5 14H2.5C1.53477 14 0.75 13.2152 0.75 12.25V1.75Z" fill="#AEAEAE"/>
</svg>
