<svg width="40" height="40" viewBox="0 0 40 40" fill="none" xmlns="http://www.w3.org/2000/svg">
<path d="M39.4886 19.9118L39.4861 19.9363V19.9609C39.4861 21.1396 38.6222 21.9688 37.7639 21.9688H35.5417H35.0397L35.0417 22.4707L35.0903 34.9844C35.0903 34.9847 35.0903 34.985 35.0903 34.9853C35.0903 35.1744 35.0778 35.3678 35.058 35.568L35.0556 35.5926V35.6172V36.8828C35.0556 38.3902 33.9827 39.5078 32.7778 39.5078H31.6667C31.5861 39.5078 31.5352 39.5074 31.4884 39.5026L31.443 39.498L31.3975 39.5016C31.3237 39.5075 31.2467 39.5078 31.1465 39.5078C31.1463 39.5078 31.1461 39.5078 31.1459 39.5078L28.8906 39.5H28.8889H27.2223C26.0174 39.5 24.9445 38.3824 24.9445 36.875V35V30C24.9445 28.398 23.7813 27 22.2223 27H17.7778C16.2188 27 15.0556 28.398 15.0556 30V35V36.875C15.0556 38.3824 13.9827 39.5 12.7778 39.5H11.1111H8.89586C8.81355 39.5 8.72809 39.4938 8.62076 39.4858L8.57869 39.4826L8.53669 39.4866C8.44938 39.4947 8.38938 39.5 8.33336 39.5H7.22225C6.01741 39.5 4.94447 38.3824 4.94447 36.875V28.125C4.94447 28.0493 4.94492 27.9967 4.949 27.9554L4.95142 27.9309V27.9062V22.4609V21.9609H4.45142H2.2292C1.31003 21.9609 0.506973 21.1491 0.506973 19.9531C0.506973 19.3657 0.675024 18.8661 1.06428 18.4226L18.8501 0.982001L18.8623 0.969997L18.8737 0.957182C19.2232 0.564054 19.6065 0.5 20.0278 0.5C20.4156 0.5 20.8362 0.62557 21.1397 0.907467L38.8707 18.4415L38.8715 18.4423C39.3455 18.9089 39.5399 19.3922 39.4886 19.9118Z" fill="#AEAEAE" stroke="#AEAEAE"/>
</svg>
