<svg width="24" height="24" viewBox="0 0 24 24" fill="none" xmlns="http://www.w3.org/2000/svg">
<path d="M6.79756 14.0714H14.7496C15.8469 14.0714 16.6247 13.0806 16.6247 12C16.6247 10.9194 15.8469 9.92857 14.7496 9.92857H6.79756L9.22598 7.15337C9.92808 6.35101 9.92808 5.07265 9.22598 4.27029C8.48964 3.4288 7.26318 3.4288 6.52684 4.27029L1.02657 10.556L0.902851 10.6974V10.7171C0.327234 11.5216 0.368473 12.6919 1.02657 13.444L6.52684 19.7297C7.26318 20.5712 8.48964 20.5712 9.22598 19.7297C9.92808 18.9274 9.92808 17.649 9.22598 16.8466L6.79756 14.0714ZM16.1247 19.3571C15.0273 19.3571 14.2496 20.348 14.2496 21.4286C14.2496 22.5091 15.0273 23.5 16.1247 23.5H18.8748C21.489 23.5 23.5 21.0998 23.5 18.2857L23.5 5.71429C23.5 2.90025 21.489 0.5 18.8748 0.5H16.1247C15.0273 0.5 14.2496 1.49087 14.2496 2.57143C14.2496 3.65199 15.0273 4.64286 16.1247 4.64286H18.8748C19.2986 4.64286 19.7499 5.05645 19.7499 5.71429L19.7499 18.2857C19.7499 18.9435 19.2986 19.3571 18.8748 19.3571H16.1247Z" stroke="#AEAEAE"/>
</svg>
