<svg width="40" height="48" viewBox="0 0 40 48" fill="none" xmlns="http://www.w3.org/2000/svg">
<path d="M17.2474 5.28904L17.6433 5.20477V4.8V3C17.6433 1.5935 18.7189 0.5 20.0004 0.5C21.2819 0.5 22.3575 1.5935 22.3575 3V4.8V5.20477L22.7534 5.28904C29.0291 6.62498 33.7861 12.468 33.7861 19.5V21.8812C33.7861 26.245 35.2048 30.4859 37.7986 33.9023L37.7993 33.9033L39.1297 35.647L39.1305 35.6481C39.5334 36.1732 39.613 36.9035 39.3317 37.5164C39.0513 38.1273 38.4725 38.5 37.8575 38.5H2.14326C1.52833 38.5 0.949469 38.1273 0.669106 37.5164C0.387795 36.9035 0.467432 36.1732 0.87032 35.6481L0.871915 35.646L2.20179 33.8935C4.79607 30.4861 6.21468 26.2449 6.21468 21.8812V19.5C6.21468 12.468 10.9717 6.62498 17.2474 5.28904ZM33.545 35H34.439L33.9711 34.2383C31.7162 30.5676 30.5004 26.2802 30.5004 21.8812V19.5C30.5004 13.444 25.826 8.5 20.0004 8.5C14.1748 8.5 9.5004 13.444 9.5004 19.5V21.8812C9.5004 26.2802 8.28458 30.5676 6.02972 34.2383L5.56181 35H6.45576H33.545ZM20.0004 42.5H25.1933C25.0832 43.7852 24.551 44.9906 23.683 45.902C22.7041 46.9299 21.3787 47.5 20.0004 47.5C18.6221 47.5 17.2967 46.9299 16.3178 45.902C15.4498 44.9906 14.9176 43.7852 14.8075 42.5H20.0004Z" fill="#AEAEAE" stroke="#AEAEAE"/>
</svg>
