<svg width="16" height="14" viewBox="0 0 16 14" fill="none" xmlns="http://www.w3.org/2000/svg">
<path d="M5.25 1.4127C4.83437 1.4127 4.5 1.75238 4.5 2.1746V11.8254C4.5 12.0921 4.45625 12.3492 4.37187 12.5873H13.75C14.1656 12.5873 14.5 12.2476 14.5 11.8254V2.1746C14.5 1.75238 14.1656 1.4127 13.75 1.4127H5.25ZM2.25 14.1111C1.00625 14.1111 0 13.0889 0 11.8254V2.42857C0 2.00635 0.334375 1.66666 0.75 1.66666C1.16562 1.66666 1.5 2.00635 1.5 2.42857V11.8254C1.5 12.2476 1.83438 12.5873 2.25 12.5873C2.66563 12.5873 3 12.2476 3 11.8254V2.1746C3 0.911108 4.00625 -0.111115 5.25 -0.111115H13.75C14.9937 -0.111115 16 0.911108 16 2.1746V11.8254C16 13.0889 14.9937 14.1111 13.75 14.1111H2.25ZM5.5 3.19047C5.5 2.76825 5.83437 2.42857 6.25 2.42857H9.25C9.66562 2.42857 10 2.76825 10 3.19047V5.73016C10 6.15238 9.66562 6.49206 9.25 6.49206H6.25C5.83437 6.49206 5.5 6.15238 5.5 5.73016V3.19047ZM11.75 2.42857H12.75C13.1656 2.42857 13.5 2.76825 13.5 3.19047C13.5 3.6127 13.1656 3.95238 12.75 3.95238H11.75C11.3344 3.95238 11 3.6127 11 3.19047C11 2.76825 11.3344 2.42857 11.75 2.42857ZM11.75 4.96825H12.75C13.1656 4.96825 13.5 5.30793 13.5 5.73016C13.5 6.15238 13.1656 6.49206 12.75 6.49206H11.75C11.3344 6.49206 11 6.15238 11 5.73016C11 5.30793 11.3344 4.96825 11.75 4.96825ZM6.25 7.50793H12.75C13.1656 7.50793 13.5 7.84762 13.5 8.26984C13.5 8.69206 13.1656 9.03174 12.75 9.03174H6.25C5.83437 9.03174 5.5 8.69206 5.5 8.26984C5.5 7.84762 5.83437 7.50793 6.25 7.50793ZM6.25 10.0476H12.75C13.1656 10.0476 13.5 10.3873 13.5 10.8095C13.5 11.2317 13.1656 11.5714 12.75 11.5714H6.25C5.83437 11.5714 5.5 11.2317 5.5 10.8095C5.5 10.3873 5.83437 10.0476 6.25 10.0476Z" fill="#AEAEAE"/>
</svg>
