<svg width="44" height="40" viewBox="0 0 44 40" fill="none" xmlns="http://www.w3.org/2000/svg">
<path d="M7.6 10C7.6 7.57471 8.44898 5.27046 9.92817 3.58956C11.4037 1.91277 13.3756 1 15.4 1C17.4244 1 19.3963 1.91277 20.8718 3.58956C22.351 5.27046 23.2 7.57471 23.2 10C23.2 12.4253 22.351 14.7295 20.8718 16.4104C19.3963 18.0872 17.4244 19 15.4 19C13.3756 19 11.4037 18.0872 9.92817 16.4104C8.44898 14.7295 7.6 12.4253 7.6 10ZM1 37.6797C1 30.4127 6.15482 24.75 12.2581 24.75H18.5419C24.6452 24.75 29.8 30.4127 29.8 37.6797C29.8 38.5326 29.2171 39 28.7581 39H2.04188C1.58294 39 1 38.5326 1 37.6797ZM41.8894 39H33.8349C33.9466 38.5212 34.0069 38.0187 34.0069 37.5V36.875C34.0069 32.7337 32.6598 28.9227 30.4158 26H32.9175C38.3673 26 43 31.0685 43 37.6016C43 38.4991 42.3846 39 41.8894 39ZM29.7 19C28.1284 19 26.6677 18.3712 25.5048 17.2896C26.7092 15.1802 27.4 12.676 27.4 10C27.4 8.05657 27.0343 6.20216 26.3712 4.52527C27.3614 3.86918 28.4975 3.5 29.7 3.5C33.2871 3.5 36.4 6.8424 36.4 11.25C36.4 15.6576 33.2871 19 29.7 19Z" stroke="#AEAEAE" stroke-width="2"/>
</svg>
