<svg width="40" height="35" viewBox="0 0 40 35" fill="none" xmlns="http://www.w3.org/2000/svg">
<path d="M11.8828 0.984077C12.6562 1.67939 12.7187 2.85908 12.0234 3.63251L6.39844 9.88251C6.05469 10.2653 5.57031 10.4919 5.05469 10.4997C4.53906 10.5075 4.04687 10.3122 3.67969 9.95283L0.546875 6.82783C-0.179688 6.09345 -0.179688 4.90595 0.546875 4.17158C1.27344 3.4372 2.46875 3.4372 3.19531 4.17158L4.92187 5.89814L9.22656 1.11689C9.92187 0.343452 11.1016 0.280952 11.875 0.976264L11.8828 0.984077ZM11.8828 13.4841C12.6562 14.1794 12.7187 15.3591 12.0234 16.1325L6.39844 22.3825C6.05469 22.7653 5.57031 22.9919 5.05469 22.9997C4.53906 23.0075 4.04687 22.8122 3.67969 22.4528L0.546875 19.3278C-0.1875 18.5935 -0.1875 17.406 0.546875 16.6794C1.28125 15.9528 2.46875 15.945 3.19531 16.6794L4.92187 18.406L9.22656 13.6247C9.92187 12.8513 11.1016 12.7888 11.875 13.4841H11.8828ZM17.5 5.4997C17.5 4.11689 18.6172 2.9997 20 2.9997H37.5C38.8828 2.9997 40 4.11689 40 5.4997C40 6.88251 38.8828 7.9997 37.5 7.9997H20C18.6172 7.9997 17.5 6.88251 17.5 5.4997ZM17.5 17.9997C17.5 16.6169 18.6172 15.4997 20 15.4997H37.5C38.8828 15.4997 40 16.6169 40 17.9997C40 19.3825 38.8828 20.4997 37.5 20.4997H20C18.6172 20.4997 17.5 19.3825 17.5 17.9997ZM12.5 30.4997C12.5 29.1169 13.6172 27.9997 15 27.9997H37.5C38.8828 27.9997 40 29.1169 40 30.4997C40 31.8825 38.8828 32.9997 37.5 32.9997H15C13.6172 32.9997 12.5 31.8825 12.5 30.4997ZM3.75 26.7497C4.74456 26.7497 5.69839 27.1448 6.40165 27.848C7.10491 28.5513 7.5 29.5051 7.5 30.4997C7.5 31.4943 7.10491 32.4481 6.40165 33.1513C5.69839 33.8546 4.74456 34.2497 3.75 34.2497C2.75544 34.2497 1.80161 33.8546 1.09835 33.1513C0.395088 32.4481 -2.28174e-08 31.4943 -2.28174e-08 30.4997C-2.28174e-08 29.5051 0.395088 28.5513 1.09835 27.848C1.80161 27.1448 2.75544 26.7497 3.75 26.7497Z" fill="#AEAEAE"/>
</svg>
