<svg width="41" height="47" viewBox="0 0 41 47" fill="none" xmlns="http://www.w3.org/2000/svg">
<path d="M13.9107 2.20312C13.9107 0.982227 12.9315 0 11.7143 0C10.4971 0 9.51786 0.982227 9.51786 2.20312V5.875H5.85714C2.62656 5.875 0 8.50957 0 11.75V13.2188V17.625V41.125C0 44.3654 2.62656 47 5.85714 47H35.1429C38.3734 47 41 44.3654 41 41.125V17.625V13.2188V11.75C41 8.50957 38.3734 5.875 35.1429 5.875H31.4821V2.20312C31.4821 0.982227 30.5029 0 29.2857 0C28.0685 0 27.0893 0.982227 27.0893 2.20312V5.875H13.9107V2.20312ZM4.39286 17.625H36.6071V41.125C36.6071 41.9328 35.9482 42.5938 35.1429 42.5938H5.85714C5.05179 42.5938 4.39286 41.9328 4.39286 41.125V17.625Z" fill="#AEAEAE"/>
</svg>
