<svg width="24" height="24" viewBox="0 0 24 24" fill="none" xmlns="http://www.w3.org/2000/svg">
<path d="M23.3453 7.6782L23.3451 7.67839L23.4677 7.99264C23.5415 8.18187 23.489 8.41588 23.292 8.58272L23.2896 8.58475L21.1362 10.432L20.9285 10.6101L20.9666 10.8811C21.0183 11.2485 21.0463 11.6238 21.0463 12.0023C21.0463 12.3809 21.0183 12.7562 20.9666 13.1236L20.9285 13.3946L21.1362 13.5727L23.2896 15.4199L23.292 15.422C23.4889 15.5887 23.5415 15.8227 23.4677 16.0119C23.2598 16.5418 23.009 17.051 22.7193 17.5441L22.4901 17.9164C22.1767 18.4085 21.8248 18.8747 21.4389 19.3148L21.4375 19.3164C21.2903 19.4857 21.0162 19.5672 20.74 19.4844L20.7399 19.4843L17.9697 18.6545L17.733 18.5835L17.5329 18.7285C16.9009 19.1865 16.2026 19.569 15.4572 19.8581L15.2107 19.9537L15.1509 20.2112L14.5294 22.8878C14.4754 23.1193 14.2871 23.303 14.0352 23.3417L14.0336 23.342C13.3729 23.4458 12.6926 23.5 11.9975 23.5C11.3024 23.5 10.6221 23.4458 9.96146 23.342L9.95981 23.3417C9.70797 23.303 9.51962 23.1193 9.46565 22.8878L8.84409 20.2112L8.78429 19.9537L8.53784 19.8581C7.79241 19.569 7.09416 19.1865 6.46217 18.7285L6.26153 18.5832L6.02432 18.6548L3.25997 19.489C2.98768 19.5707 2.71048 19.4886 2.56054 19.3189C2.17485 18.8789 1.82316 18.4129 1.50985 17.921L1.28079 17.5489C0.990995 17.0557 0.740134 16.5465 0.532198 16.0164C0.458565 15.8272 0.511148 15.5934 0.707999 15.4266L0.708006 15.4267L0.710363 15.4246L2.86381 13.5774L3.07109 13.3996L3.03351 13.1291C2.98173 12.7563 2.95372 12.3808 2.95372 12.0023C2.95372 11.6238 2.98174 11.2485 3.0334 10.8811L3.07149 10.6101L2.86381 10.432L0.710364 8.58475L0.71037 8.58474L0.707999 8.58273C0.511133 8.41597 0.458557 8.18211 0.532216 7.99294C0.740143 7.46289 0.990992 6.95365 1.28077 6.46055L1.50986 6.08835C1.82333 5.5962 2.17521 5.13002 2.56112 4.68985L2.56253 4.68825C2.70967 4.51896 2.98384 4.43751 3.25997 4.52033L3.26014 4.52038L6.03028 5.35023L6.26702 5.42116L6.46715 5.27614C7.09913 4.81819 7.79739 4.43567 8.54281 4.14658L8.78927 4.05099L8.84906 3.79351L9.47063 1.11684C9.5246 0.88534 9.71295 0.701688 9.96479 0.662979L9.96479 0.663004L9.96972 0.662196C10.6282 0.554231 11.3074 0.5 12.0025 0.5C12.6976 0.5 13.3779 0.554228 14.0385 0.658038L14.0402 0.658291C14.292 0.697 14.4804 0.880653 14.5343 1.11216L15.1559 3.78882L15.2157 4.04631L15.4622 4.14189C16.2076 4.43098 16.9058 4.8135 17.5378 5.27145L17.738 5.41647L17.9747 5.34555L20.7448 4.5157L20.745 4.51565C21.0172 4.43399 21.2943 4.51599 21.4443 4.68568C21.83 5.12569 22.1818 5.5917 22.4951 6.08364L22.7242 6.45588C22.9571 6.85209 23.1648 7.25873 23.3453 7.6782ZM12.0025 16.2531C13.1811 16.2531 14.3169 15.812 15.1588 15.0183C16.0017 14.2238 16.4811 13.1395 16.4811 12.0023C16.4811 10.8651 16.0017 9.78094 15.1588 8.98635C14.3169 8.19272 13.1811 7.75161 12.0025 7.75161C10.8239 7.75161 9.68804 8.19272 8.84618 8.98635C8.00331 9.78094 7.52383 10.8651 7.52383 12.0023C7.52383 13.1395 8.00331 14.2238 8.84618 15.0183C9.68804 15.812 10.8239 16.2531 12.0025 16.2531Z" stroke="#AEAEAE"/>
</svg>
