<svg width="18" height="18" viewBox="0 0 18 18" fill="none" xmlns="http://www.w3.org/2000/svg">
<rect x="0.5" y="0.5" width="17" height="17" rx="3.5" stroke="#AEAEAE" stroke-opacity="0.5"/>
<g clip-path="url(#clip0_97_70)">
<path d="M4.8 6C4.8 5.20435 5.05286 4.44129 5.50294 3.87868C5.95303 3.31607 6.56348 3 7.2 3C7.83652 3 8.44697 3.31607 8.89706 3.87868C9.34714 4.44129 9.6 5.20435 9.6 6C9.6 6.79565 9.34714 7.55871 8.89706 8.12132C8.44697 8.68393 7.83652 9 7.2 9C6.56348 9 5.95303 8.68393 5.50294 8.12132C5.05286 7.55871 4.8 6.79565 4.8 6ZM3 14.3039C3 11.9953 4.49625 10.125 6.34313 10.125H8.05688C9.90375 10.125 11.4 11.9953 11.4 14.3039C11.4 14.6883 11.1506 15 10.8431 15H3.55688C3.24938 15 3 14.6883 3 14.3039ZM14.4244 15H11.8406C11.9419 14.7797 12.0019 14.5242 12.0019 14.25V14.0625C12.0019 12.6398 11.4938 11.3625 10.6931 10.5047C10.7381 10.5023 10.7812 10.5 10.8263 10.5H11.9775C13.6462 10.5 15 12.1922 15 14.2805C15 14.6789 14.7413 15 14.4244 15ZM11.1 9C10.5188 9 9.99375 8.70469 9.61313 8.22891C9.9825 7.60547 10.2 6.83437 10.2 6C10.2 5.37188 10.0763 4.77891 9.85688 4.25859C10.2056 3.93984 10.635 3.75 11.1 3.75C12.2606 3.75 13.2 4.92422 13.2 6.375C13.2 7.82578 12.2606 9 11.1 9Z" fill="#AEAEAE"/>
</g>
<defs>
<clipPath id="clip0_97_70">
<rect width="12" height="12" fill="white" transform="translate(3 3)"/>
</clipPath>
</defs>
</svg>
