<svg width="24" height="24" viewBox="0 0 24 24" fill="none" xmlns="http://www.w3.org/2000/svg">
<path d="M17.6109 0.924362C17.5406 0.549362 17.2875 0.235299 16.9359 0.089987C16.5844 -0.0553255 16.1813 -0.013138 15.8672 0.202487L12 2.86499L8.13281 0.197799C7.81875 -0.0178255 7.41563 -0.060013 7.06406 0.0852995C6.7125 0.230612 6.45938 0.544675 6.38906 0.919675L5.54063 5.53686L0.923439 6.38999C0.548439 6.4603 0.234376 6.71342 0.0890638 7.06499C-0.0562486 7.41655 -0.0140611 7.81967 0.201564 8.13374L2.86406 12.0009L0.196876 15.8681C-0.0187487 16.1822 -0.0609361 16.5853 0.0843763 16.9369C0.229689 17.2884 0.543751 17.5462 0.918751 17.6119L5.53594 18.4603L6.38438 23.0775C6.45469 23.4525 6.70781 23.7665 7.05938 23.9119C7.41094 24.0572 7.81406 24.015 8.12813 23.7994L12 21.1369L15.8672 23.804C16.1813 24.0197 16.5844 24.0619 16.9359 23.9165C17.2875 23.7712 17.5406 23.4572 17.6109 23.0822L18.4594 18.465L23.0766 17.6165C23.4516 17.5462 23.7656 17.2931 23.9109 16.9415C24.0563 16.59 24.0141 16.1869 23.7984 15.8728L21.1359 12.0009L23.8031 8.13374C24.0188 7.81967 24.0609 7.41655 23.9156 7.06499C23.7703 6.71342 23.4563 6.4603 23.0813 6.38999L18.4641 5.54155L17.6109 0.924362ZM12.6375 5.15717L15.7125 3.03842L16.3875 6.70874C16.4719 7.16811 16.8328 7.52905 17.2922 7.61342L20.9625 8.28843L18.8438 11.3634C18.5766 11.7478 18.5766 12.2541 18.8438 12.6384L20.9625 15.7134L17.2922 16.3884C16.8328 16.4728 16.4719 16.8337 16.3875 17.2931L15.7125 20.9634L12.6375 18.8447C12.2531 18.5775 11.7469 18.5775 11.3625 18.8447L8.2875 20.9634L7.6125 17.2931C7.52813 16.8337 7.16719 16.4728 6.70781 16.3884L3.0375 15.7134L5.15625 12.6384C5.42344 12.2541 5.42344 11.7478 5.15625 11.3634L3.0375 8.28843L6.70781 7.61342C7.16719 7.52905 7.52813 7.16811 7.6125 6.70874L8.2875 3.03842L11.3625 5.15717C11.7469 5.42436 12.2531 5.42436 12.6375 5.15717ZM12 17.2509C13.3924 17.2509 14.7277 16.6978 15.7123 15.7132C16.6969 14.7287 17.25 13.3933 17.25 12.0009C17.25 10.6085 16.6969 9.27318 15.7123 8.28861C14.7277 7.30405 13.3924 6.75093 12 6.75093C10.6076 6.75093 9.27226 7.30405 8.28769 8.28861C7.30313 9.27318 6.75 10.6085 6.75 12.0009C6.75 13.3933 7.30313 14.7287 8.28769 15.7132C9.27226 16.6978 10.6076 17.2509 12 17.2509ZM9 12.0009C9 11.2053 9.31607 10.4422 9.87868 9.8796C10.4413 9.317 11.2044 9.00093 12 9.00093C12.7957 9.00093 13.5587 9.317 14.1213 9.8796C14.6839 10.4422 15 11.2053 15 12.0009C15 12.7966 14.6839 13.5596 14.1213 14.1222C13.5587 14.6849 12.7957 15.0009 12 15.0009C11.2044 15.0009 10.4413 14.6849 9.87868 14.1222C9.31607 13.5596 9 12.7966 9 12.0009Z" fill="#AEAEAE"/>
</svg>
