<svg width="22" height="24" viewBox="0 0 22 24" fill="none" xmlns="http://www.w3.org/2000/svg">
<path d="M8.03796 3.56409C6.87143 5.39169 6.19928 7.54623 6.19928 9.85083C6.19928 15.1032 9.68777 19.573 14.5539 21.197C13.8651 21.347 13.1485 21.4274 12.4097 21.4274C7.03252 21.4274 2.66636 17.2095 2.66636 11.9946C2.66636 8.30192 4.85499 5.113 8.04351 3.56409H8.03796ZM11.4876 0.0267977C5.06053 0.482358 0 5.66503 0 11.9946C0 18.6244 5.55491 24 12.4152 24C15.0705 24 17.5257 23.1961 19.5477 21.824C19.6533 21.7544 19.7533 21.6793 19.8533 21.6096C20.1199 21.4167 20.3754 21.213 20.6254 20.9987C20.7754 20.87 20.9198 20.7414 21.0642 20.6074C21.342 20.3448 21.4142 19.9375 21.2364 19.6052C21.0587 19.2729 20.6754 19.0853 20.2921 19.1496C20.0866 19.1818 19.881 19.2139 19.6755 19.2354C19.3978 19.2622 19.1145 19.2836 18.8256 19.289C18.7589 19.289 18.6867 19.289 18.6201 19.289H18.6034C13.2262 19.2782 8.8712 15.0603 8.8712 9.85619C8.8712 6.91916 10.2544 4.29835 12.4319 2.56722C12.4874 2.51898 12.5485 2.47611 12.6097 2.42787C12.8318 2.25636 13.0652 2.09558 13.304 1.94551C13.4762 1.83832 13.654 1.73113 13.8373 1.63466C14.1761 1.44707 14.3483 1.07191 14.265 0.707459C14.1817 0.34301 13.8595 0.069674 13.4707 0.0375168C13.2707 0.0214382 13.0763 0.010719 12.8763 0.00535945C12.7263 -8.18599e-08 12.5708 0 12.4208 0C12.2375 0 12.0597 0.00535958 11.8764 0.0107191C11.7486 0.0160786 11.6209 0.0214381 11.4931 0.0321571L11.4876 0.0267977Z" fill="#AEAEAE"/>
</svg>
