<svg width="224" height="224" viewBox="0 0 224 224" fill="none" xmlns="http://www.w3.org/2000/svg">
<g filter="url(#filter0_d_3_46)">
<rect x="12" y="12" width="200" height="200" rx="16" fill="#4914A5"/>
<path opacity="0.8" d="M77.3295 150V48.1818H89.6591V139.062H136.989V150H77.3295Z" fill="white"/>
<path opacity="0.8" d="M108.818 127.08V114.182H112.17V136H108.818V132.307H108.591C108.08 133.415 107.284 134.357 106.205 135.134C105.125 135.901 103.761 136.284 102.114 136.284C100.75 136.284 99.5379 135.986 98.4773 135.389C97.4167 134.783 96.5833 133.874 95.9773 132.662C95.3712 131.44 95.0682 129.902 95.0682 128.045V114.182H98.4205V127.818C98.4205 129.409 98.8655 130.678 99.7557 131.625C100.655 132.572 101.801 133.045 103.193 133.045C104.027 133.045 104.874 132.832 105.736 132.406C106.607 131.98 107.336 131.327 107.923 130.446C108.52 129.565 108.818 128.443 108.818 127.08Z" fill="white"/>
<path opacity="0.8" d="M116.068 136V114.182H119.307V117.591H119.591C120.045 116.426 120.779 115.522 121.793 114.878C122.806 114.224 124.023 113.898 125.443 113.898C126.883 113.898 128.08 114.224 129.037 114.878C130.003 115.522 130.756 116.426 131.295 117.591H131.523C132.081 116.464 132.92 115.569 134.037 114.906C135.154 114.234 136.494 113.898 138.057 113.898C140.008 113.898 141.603 114.509 142.844 115.73C144.084 116.942 144.705 118.831 144.705 121.398V136H141.352V121.398C141.352 119.788 140.912 118.637 140.031 117.946C139.151 117.255 138.114 116.909 136.92 116.909C135.386 116.909 134.198 117.373 133.355 118.301C132.512 119.22 132.091 120.384 132.091 121.795V136H128.682V121.057C128.682 119.816 128.279 118.817 127.474 118.06C126.67 117.293 125.633 116.909 124.364 116.909C123.492 116.909 122.678 117.141 121.92 117.605C121.172 118.069 120.566 118.713 120.102 119.537C119.648 120.351 119.42 121.294 119.42 122.364V136H116.068Z" fill="white"/>
</g>
<defs>
<filter id="filter0_d_3_46" x="0" y="0" width="224" height="224" filterUnits="userSpaceOnUse" color-interpolation-filters="sRGB">
<feFlood flood-opacity="0" result="BackgroundImageFix"/>
<feColorMatrix in="SourceAlpha" type="matrix" values="0 0 0 0 0 0 0 0 0 0 0 0 0 0 0 0 0 0 127 0" result="hardAlpha"/>
<feMorphology radius="2" operator="dilate" in="SourceAlpha" result="effect1_dropShadow_3_46"/>
<feOffset/>
<feGaussianBlur stdDeviation="5"/>
<feComposite in2="hardAlpha" operator="out"/>
<feColorMatrix type="matrix" values="0 0 0 0 0 0 0 0 0 0 0 0 0 0 0 0 0 0 0.1 0"/>
<feBlend mode="normal" in2="BackgroundImageFix" result="effect1_dropShadow_3_46"/>
<feBlend mode="normal" in="SourceGraphic" in2="effect1_dropShadow_3_46" result="shape"/>
</filter>
</defs>
</svg>
